<?xml version="1.0" standalone="no"?>
<!DOCTYPE svg PUBLIC "-//W3C//DTD SVG 20010904//EN"
 "http://www.w3.org/TR/2001/REC-SVG-20010904/DTD/svg10.dtd">
<svg version="1.0" xmlns="http://www.w3.org/2000/svg"
 width="796.000000pt" height="796.000000pt" viewBox="0 0 796.000000 796.000000"
 preserveAspectRatio="xMidYMid meet">
<metadata>
Created by potrace 1.16, written by Peter Selinger 2001-2019
</metadata>
<g transform="translate(0.000000,796.000000) scale(0.100000,-0.100000)"
fill="#000000" stroke="none">
<path d="M2830 2650 c0 -9 -12 -11 -43 -7 -31 4 -50 2 -66 -9 -12 -9 -29 -13
-39 -11 -13 4 -12 5 5 6 41 2 36 21 -6 21 -21 0 -41 -4 -43 -10 -1 -5 -19 -12
-38 -15 l-35 -5 34 11 c42 13 37 20 -9 10 l-35 -7 -2 -387 -3 -387 33 0 c17 0
38 -4 46 -9 8 -5 -4 -7 -33 -4 -43 5 -46 4 -45 -18 0 -13 3 -18 6 -11 2 6 14
12 26 11 21 0 21 -1 2 -8 -19 -8 12 -10 165 -13 78 -2 173 6 188 15 6 5 17 5
22 2 6 -3 10 -2 10 4 0 5 10 11 23 13 12 2 22 9 22 17 0 8 7 16 15 18 9 3 11
1 5 -4 -16 -13 -16 -33 1 -33 8 0 13 4 9 9 -3 5 -1 13 5 16 6 4 9 3 8 -2 -7
-21 34 -17 59 6 12 11 24 17 29 13 4 -4 4 -1 0 6 -6 11 -11 11 -24 0 -10 -8
-13 -8 -9 -1 4 6 4 13 0 16 -5 2 -3 2 4 1 7 -2 23 10 37 26 23 28 44 42 31 21
-3 -5 0 -13 6 -17 8 -4 9 -3 5 4 -4 7 -2 12 4 12 6 0 9 4 5 9 -3 5 1 16 9 24
8 8 13 17 10 20 -3 3 -1 14 4 24 15 28 -11 111 -44 142 -16 14 -32 25 -36 23
-5 -1 -8 2 -8 8 0 8 -80 56 -87 51 -2 0 -5 0 -8 0 -3 1 -11 2 -17 3 -7 0 -13
6 -13 11 0 6 -4 16 -9 23 -4 7 -5 16 -2 19 3 4 6 1 6 -5 0 -7 5 -12 11 -12 5
0 7 5 3 12 -4 7 -3 8 5 4 6 -4 9 -12 6 -17 -4 -5 -1 -9 4 -9 6 0 11 4 11 8 0
5 6 9 13 9 15 0 106 60 108 71 1 4 2 19 3 34 1 15 6 31 10 35 5 5 6 2 1 -6 -5
-9 -4 -12 3 -7 29 18 -25 156 -61 156 -4 0 -22 10 -39 23 -22 15 -32 18 -35
10 -3 -8 -14 -11 -29 -7 -24 6 -24 5 -12 -22 6 -16 17 -35 22 -43 9 -12 8 -12
-11 -1 -12 8 -20 17 -17 21 2 4 0 10 -6 14 -6 4 -8 11 -5 16 4 5 2 9 -4 9 -5
0 -12 -6 -14 -12 -4 -10 -6 -10 -6 -1 -1 6 4 15 10 19 13 7 -38 44 -61 44 -13
0 -13 -2 -1 -9 11 -7 5 -11 -23 -16 -22 -5 -42 -3 -48 3 -6 6 -1 8 16 5 14 -3
26 -1 26 4 0 5 -6 10 -12 10 -7 0 -21 4 -30 8 -12 5 -18 3 -18 -5z m-105 -59
c-2 -5 35 -9 83 -10 125 -3 151 -5 145 -13 -2 -5 3 -8 12 -8 43 0 106 -73 99
-115 -4 -23 23 -85 36 -85 6 0 10 -8 10 -17 0 -14 -2 -15 -9 -4 -5 7 -13 11
-19 7 -14 -9 -43 4 -36 16 4 6 -5 2 -20 -7 -14 -10 -26 -20 -26 -24 0 -11 -51
-30 -68 -24 -15 4 -15 3 -2 -6 11 -8 3 -9 -31 -5 -30 4 -49 2 -53 -5 -4 -6
-12 -11 -17 -11 -6 0 -7 5 -4 10 3 6 2 10 -3 10 -6 0 -12 -7 -16 -15 -4 -10
-20 -15 -50 -15 -34 0 -46 -4 -49 -17 -3 -12 -7 -8 -12 14 -5 20 -12 30 -19
26 -6 -4 -5 1 3 10 10 13 12 49 9 159 -3 79 -3 137 -1 131 5 -14 24 -18 22 -5
-3 16 2 23 11 17 6 -4 8 -10 5 -14z m-45 -265 c0 -8 -6 -16 -14 -19 -12 -5
-12 -11 -3 -31 7 -14 15 -26 19 -26 4 0 5 -6 3 -12 -4 -10 21 -13 105 -14 98
0 134 6 98 19 -7 2 2 4 19 5 38 1 56 9 48 23 -4 5 2 17 11 27 17 16 18 16 11
0 -4 -11 -2 -18 5 -18 6 0 -1 -9 -15 -20 -14 -11 -30 -20 -35 -20 -5 0 -12 -7
-16 -15 -4 -12 3 -15 34 -15 22 0 40 -4 40 -10 0 -5 10 -14 21 -21 17 -9 20
-8 14 3 -4 7 4 0 18 -17 14 -16 34 -41 46 -54 12 -13 21 -29 21 -35 0 -6 -5
-4 -10 4 -8 13 -10 12 -10 -4 0 -10 8 -25 18 -32 16 -13 16 -14 -3 -7 -11 3
-17 3 -13 -2 4 -4 3 -17 -3 -27 -8 -15 -8 -23 2 -32 9 -8 10 -8 5 1 -7 13 2
43 13 43 4 0 8 -7 8 -15 0 -8 -4 -12 -9 -9 -4 3 -8 1 -8 -5 0 -5 5 -13 10 -16
6 -3 10 -12 10 -18 0 -8 -3 -8 -8 -2 -12 17 -35 11 -72 -17 -19 -15 -47 -30
-62 -33 -16 -4 -26 -11 -23 -15 2 -4 -7 -6 -21 -4 -15 1 -34 0 -43 -4 -13 -5
-11 -8 9 -13 18 -5 11 -7 -25 -7 -37 -1 -45 2 -30 8 13 6 -10 9 -70 10 -49 2
-94 2 -99 1 -5 -1 -4 5 4 13 19 23 -4 19 -25 -4 -17 -19 -17 -20 0 -20 10 0
16 -3 12 -6 -3 -3 -16 -3 -28 1 -20 7 -20 8 -6 17 10 5 17 18 17 28 0 13 5 17
14 14 8 -3 17 -1 21 5 3 6 0 11 -8 11 -8 0 -18 7 -21 16 -10 27 -7 244 4 244
6 0 10 -49 10 -126 0 -81 4 -123 10 -119 6 4 10 57 10 125 0 68 -4 121 -10
125 -5 3 -10 15 -10 26 0 11 -7 19 -16 19 -13 0 -14 3 -5 14 9 10 9 16 1 21
-8 5 -7 12 4 24 9 10 13 21 9 24 -3 4 -1 7 5 7 7 0 12 -6 12 -14z"/>
<path d="M6900 2650 c-6 -4 -33 -6 -59 -6 -27 1 -47 -3 -43 -8 3 -5 -5 -6 -18
-3 -13 3 -33 1 -44 -6 -20 -11 -26 -13 -44 -16 -5 0 -9 -8 -9 -16 0 -8 4 -12
9 -9 4 3 8 1 8 -3 0 -5 -9 -14 -20 -21 -12 -7 -18 -17 -14 -23 4 -6 9 -7 13
-3 3 5 14 15 24 23 15 12 17 12 11 -3 -3 -9 -11 -16 -18 -16 -6 0 -4 -5 4 -11
13 -9 12 -10 -2 -5 -18 5 -26 -9 -9 -16 5 -1 4 -11 -4 -21 -11 -16 -13 -16
-19 -2 -4 10 -2 14 5 9 7 -4 10 -1 7 6 -2 7 -11 14 -20 16 -13 2 -15 -5 -11
-34 5 -27 3 -33 -7 -27 -9 6 -12 4 -8 -7 8 -19 -7 -45 -16 -29 -4 6 -3 11 3
11 7 0 7 8 1 26 -13 32 -12 56 1 29 7 -16 8 -13 4 13 -3 24 -1 32 10 32 8 0
15 5 15 11 0 19 -30 41 -50 36 -11 -3 -18 -1 -15 3 3 5 1 11 -5 15 -6 3 -13
-1 -16 -9 -5 -13 -27 -16 -129 -16 -72 0 -126 4 -130 10 -4 6 40 10 124 10
114 0 131 2 143 18 7 10 20 22 28 27 10 6 9 2 -3 -12 -13 -15 -15 -23 -7 -28
15 -9 23 0 26 30 l3 24 -447 -2 -447 -2 -1 -262 c-1 -145 -5 -282 -8 -306 -8
-52 -46 -115 -86 -142 -15 -10 -26 -25 -23 -32 3 -7 9 -10 14 -7 5 3 6 -1 4
-8 -3 -8 6 -18 25 -25 21 -8 28 -8 23 0 -4 7 0 8 11 4 19 -8 107 68 131 114
16 30 3 66 -15 39 -13 -19 -13 -33 0 -25 13 8 13 -5 0 -25 -7 -11 -10 -12 -10
-2 0 17 -29 46 -37 38 -4 -3 -1 -12 5 -18 14 -14 16 -32 3 -24 -5 4 -12 0 -15
-6 -4 -9 -5 -8 -5 2 1 8 1 24 0 35 -1 17 -3 17 -11 5 -5 -8 -7 -24 -4 -35 4
-16 3 -17 -5 -5 -8 12 -11 12 -11 1 0 -7 -6 -11 -14 -8 -21 8 -27 -3 -15 -25
12 -22 1 -40 -26 -44 -17 -3 -20 12 -5 21 8 5 7 12 -2 23 -7 9 -8 13 -2 9 6
-3 17 4 24 18 8 14 18 21 27 18 12 -5 14 -1 8 18 -4 17 -3 20 3 10 8 -11 11
-9 17 9 5 16 10 19 15 10 6 -9 9 -9 15 -1 5 9 11 9 23 -1 13 -11 15 -11 9 4
-5 13 0 16 24 13 17 -3 30 1 30 8 8 61 11 131 16 305 4 164 2 202 -9 202 -10
0 -9 3 2 10 8 5 10 10 4 10 -6 0 -11 6 -11 13 0 8 6 14 12 14 7 0 12 -7 11
-16 0 -8 7 -17 18 -19 12 -3 16 0 11 8 -6 9 -3 9 13 1 11 -6 63 -11 115 -11
87 0 95 2 106 23 11 22 11 22 5 -3 -6 -20 -4 -23 7 -13 12 10 14 -40 11 -337
l-3 -348 51 -3 51 -4 -3 331 c-2 262 0 330 10 327 17 -7 18 -648 0 -659 -7 -4
-33 -7 -58 -5 -46 2 -47 2 -46 -26 2 -26 6 -28 45 -31 23 -2 49 2 57 9 11 9
14 9 14 -2 0 -10 3 -10 12 -1 10 10 10 15 -2 22 -8 5 -18 6 -24 3 -5 -4 -6 -1
-2 6 5 7 14 10 21 7 11 -4 14 55 14 322 1 192 -3 341 -9 361 -11 40 -7 49 14
32 11 -9 58 -12 166 -10 85 2 154 -1 159 -7 6 -5 4 -17 -5 -29 -15 -19 -15
-18 -9 10 7 29 7 29 -8 9 -10 -13 -14 -35 -11 -65 3 -31 1 -40 -6 -29 -8 12
-12 13 -19 2 -14 -22 14 -112 35 -112 8 0 14 -6 14 -13 0 -13 35 -47 54 -52
36 -10 56 -18 56 -25 0 -5 14 -13 30 -19 37 -12 40 2 8 36 -20 21 -20 25 -6
39 14 14 15 13 10 -13 -3 -16 -1 -24 4 -20 5 5 9 14 9 20 0 7 9 11 19 9 11 -2
15 1 11 7 -3 6 -12 11 -19 11 -8 0 -19 6 -26 14 -6 8 -18 12 -26 9 -9 -3 -14
0 -12 8 2 8 -4 13 -14 13 -9 -1 -19 5 -22 12 -3 8 0 14 6 14 7 0 7 4 0 13 -6
7 -9 22 -7 32 2 11 4 25 4 32 1 13 67 94 72 88 2 -2 27 2 54 9 70 17 244 8
271 -15 13 -10 17 -10 24 1 5 8 6 18 4 22 -3 4 -1 8 4 8 5 0 12 9 15 20 5 19
-6 25 -40 21 -7 -1 -13 3 -13 9 0 5 -5 10 -11 10 -5 0 -7 -4 -4 -10 9 -15 -4
-12 -21 5 -17 16 -54 21 -54 6 0 -5 -12 -12 -27 -16 l-28 -8 25 -8 c24 -8 24
-8 -5 -6 -20 1 -29 -3 -27 -11 1 -8 -2 -11 -8 -7 -16 10 -12 21 15 35 14 7 25
17 25 21 0 10 -47 17 -60 9z"/>
<path d="M790 2637 c0 -5 -4 -5 -10 -2 -6 4 -9 -140 -7 -405 l2 -411 307 -2
c169 -1 300 1 290 5 -14 5 -13 7 5 7 12 1 25 -3 28 -9 3 -5 13 -10 21 -10 8 0
13 4 9 9 -3 5 -1 13 5 16 6 4 9 1 8 -6 -2 -6 3 -14 11 -17 8 -3 11 0 7 7 -4 6
0 11 9 11 9 0 13 -4 10 -10 -3 -5 -1 -10 5 -10 7 0 10 6 7 14 -3 8 -3 17 1 21
3 3 7 25 8 48 2 31 0 37 -6 22 -7 -16 -9 -14 -9 15 -1 24 2 31 8 21 14 -22 19
10 26 149 3 69 7 157 9 195 3 46 2 61 -4 45 l-8 -25 -1 28 c-1 18 4 27 14 27
9 0 15 9 14 23 0 21 -1 21 -9 2 -8 -20 -9 -20 -9 1 -1 11 2 24 6 28 12 12 12
35 -1 30 -7 -3 -12 5 -13 18 0 13 1 17 4 11 9 -25 20 -13 20 22 0 24 -3 32 -9
23 -7 -10 -9 -10 -5 2 6 24 37 25 37 1 0 -12 6 -21 15 -21 8 0 15 -5 15 -11 0
-5 -5 -7 -12 -3 -7 5 -8 3 -2 -7 4 -8 9 -20 10 -27 5 -29 38 -112 46 -112 4 0
4 8 1 17 -5 13 -2 15 11 10 14 -6 16 -3 12 16 -3 12 -3 16 0 8 5 -11 11 -8 26
10 l19 24 -7 -30 c-7 -34 -33 -67 -45 -60 -4 3 -10 1 -14 -5 -3 -5 -1 -10 5
-10 6 0 8 -5 4 -12 -5 -8 0 -7 11 2 17 14 17 14 8 -5 -9 -16 -6 -33 14 -79 13
-32 34 -71 45 -86 11 -16 17 -33 14 -39 -4 -6 -2 -11 5 -11 6 0 9 8 6 20 -3
13 0 20 9 20 8 0 11 -6 8 -15 -4 -9 0 -15 8 -15 17 0 42 -26 51 -52 4 -10 2
-18 -3 -18 -6 0 -10 7 -10 16 0 32 -50 59 -65 34 -3 -5 2 -10 12 -10 14 0 15
-2 4 -9 -9 -6 -10 -11 -2 -15 6 -4 11 -16 11 -27 0 -11 4 -17 10 -14 5 3 8 0
5 -7 -3 -7 4 -19 15 -26 22 -14 27 -4 8 18 -7 8 -3 6 10 -5 22 -18 15 -37 -12
-31 -6 2 -8 1 -3 -1 4 -3 4 -10 0 -16 -4 -7 0 -8 12 -3 15 5 16 4 5 -9 -9 -11
-9 -15 -1 -15 7 0 10 -4 7 -8 -2 -4 3 -25 13 -47 16 -37 19 -39 68 -40 45 -1
53 2 66 25 9 14 18 39 21 55 3 16 9 31 14 34 10 7 26 43 24 54 -1 4 3 7 9 7 5
0 7 5 4 10 -3 6 -1 10 5 10 6 0 8 5 5 10 -3 6 -2 10 2 10 5 0 14 13 20 30 10
28 9 32 -20 52 -22 15 -32 18 -35 10 -3 -10 -7 -10 -18 -1 -11 9 -14 8 -15 -7
-1 -11 -1 -25 0 -33 2 -7 -2 -11 -7 -8 -4 3 -18 -21 -30 -55 -22 -60 -22 -60
-2 -55 11 3 23 1 26 -4 3 -5 -10 -9 -30 -9 -19 0 -37 6 -39 13 -4 9 -8 9 -15
-1 -7 -11 -10 -11 -15 2 -4 9 -1 15 6 13 7 -1 11 7 9 21 -5 32 -48 123 -55
116 -3 -3 -3 3 0 15 3 12 1 21 -6 21 -6 0 -10 3 -10 8 1 4 0 10 -1 15 -1 4 -3
10 -4 15 -7 31 -19 51 -32 56 -12 5 -15 2 -10 -9 4 -10 2 -14 -5 -9 -7 4 -10
1 -7 -7 3 -8 10 -13 16 -12 5 1 13 -4 16 -13 4 -11 2 -12 -13 -5 -10 6 -20 8
-23 6 -2 -2 -5 8 -6 24 -1 20 4 31 20 40 23 11 23 12 -2 7 -23 -5 -23 -4 -7 8
15 11 15 16 5 28 -7 7 -14 20 -16 28 -7 30 -23 41 -40 28 -14 -11 -13 -9 1 11
15 23 15 26 -4 53 -12 16 -22 36 -24 46 -2 9 -4 18 -5 20 -3 3 -7 19 -9 33 0
5 -6 7 -13 3 -8 -5 -9 -2 -5 10 5 13 2 15 -20 12 -14 -3 -34 -1 -44 5 -13 6
-19 6 -19 0 0 -6 -7 -8 -15 -5 -8 4 -15 16 -15 28 0 15 -3 17 -9 8 -7 -11 -9
-11 -14 2 -5 13 2 16 41 17 57 1 46 6 -26 12 -37 3 -50 1 -43 -6 6 -6 11 -20
10 -32 0 -18 -1 -18 -10 4 -5 13 -12 21 -16 18 -9 -9 18 -68 28 -61 5 3 6 -2
3 -10 -7 -18 -20 -21 -28 -7 -3 5 -7 27 -9 48 -2 22 -8 46 -12 53 -5 9 -4 11
3 6 7 -4 20 -3 29 3 15 8 13 10 -12 8 -24 -2 -30 -7 -32 -27 -1 -14 -6 -74
-11 -133 -6 -59 -8 -127 -6 -150 3 -32 2 -37 -5 -22 -10 20 -10 20 -10 0 -1
-12 5 -27 12 -34 6 -8 7 -11 1 -8 -26 15 -27 -137 -2 -185 6 -13 5 -16 -6 -12
-8 3 -17 15 -19 27 -3 12 -5 0 -4 -28 0 -27 -3 -61 -7 -75 -6 -20 -5 -22 4
-10 9 11 10 4 4 -30 -3 -25 -11 -50 -16 -57 -6 -8 -71 -12 -215 -13 -113 0
-211 -3 -216 -7 -6 -3 -7 -1 -3 5 5 8 0 12 -13 12 -11 0 -22 -4 -26 -10 -8
-13 -35 -1 -35 15 0 8 4 17 10 20 5 3 7 0 4 -8 -3 -8 -2 -17 3 -20 4 -3 8 67
8 155 l0 160 193 -2 c154 -1 193 2 190 12 -6 17 -314 24 -334 7 -7 -6 -18 -8
-24 -4 -6 4 -20 -1 -31 -11 -15 -14 -20 -15 -17 -4 6 26 22 38 40 29 23 -12
31 -11 25 4 -3 9 32 11 162 9 150 -3 167 -1 179 15 12 16 13 15 7 -9 -10 -39
2 -35 14 5 l9 32 -1 -37 c-1 -20 -5 -34 -9 -31 -5 2 -8 -1 -8 -6 0 -6 6 -11
14 -11 11 0 14 11 13 43 l-2 42 -204 3 -204 3 6 -28 c4 -23 3 -25 -6 -12 -8
10 -12 62 -12 140 0 98 -3 127 -15 137 -13 11 -13 11 1 7 10 -4 16 0 16 9 0 8
-4 13 -8 11 -4 -3 -9 2 -12 9 -4 10 0 13 14 11 10 -2 19 0 19 6 0 7 -104 15
-134 10 -5 -1 -4 5 3 13 11 13 56 16 295 18 l281 3 -288 5 c-158 3 -287 1
-287 -3z"/>
<path d="M3277 2644 c-16 -17 -4 -24 41 -24 26 0 54 6 62 13 12 10 12 9 0 -6
-11 -14 -11 -20 -1 -26 9 -6 11 -67 10 -244 -1 -131 -4 -239 -8 -242 -4 -2 -5
9 -3 26 2 16 0 29 -4 29 -5 0 -9 98 -9 217 l0 218 -47 3 -47 3 2 -246 c2 -206
4 -247 17 -255 10 -7 11 -10 3 -10 -16 0 -17 -36 -2 -45 6 -4 8 -13 5 -21 -3
-8 -1 -14 4 -14 6 0 10 5 10 12 0 6 3 8 6 5 4 -4 1 -14 -7 -24 -12 -14 -12
-16 0 -8 11 6 13 4 7 -10 -6 -17 -5 -18 11 -3 19 16 43 14 43 -4 0 -7 -5 -6
-14 1 -12 10 -17 8 -27 -11 -11 -20 -11 -22 3 -10 13 10 18 10 24 1 4 -8 3 -9
-4 -5 -8 4 -12 0 -12 -11 0 -22 63 -87 73 -77 4 4 7 2 7 -5 0 -8 8 -11 20 -8
10 3 19 2 18 -2 -2 -19 3 -24 12 -11 8 13 10 12 10 -2 0 -16 18 -23 44 -19 4
1 15 -4 24 -11 12 -10 14 -10 8 0 -4 6 -3 12 3 12 5 0 13 -4 16 -10 3 -5 11
-10 16 -10 6 0 7 5 3 11 -3 6 7 4 23 -5 17 -8 40 -14 52 -13 23 1 29 22 9 30
-8 3 -6 6 5 6 10 1 20 -6 23 -14 4 -8 16 -15 28 -14 20 0 20 1 2 8 -18 7 -18
8 -2 14 22 9 39 0 30 -15 -5 -8 -1 -9 12 -4 10 4 24 9 31 10 7 1 15 5 19 8 3
4 12 4 20 1 8 -3 14 0 14 7 0 8 -9 11 -25 8 -13 -3 -22 -1 -19 3 3 5 14 9 25
9 12 0 17 4 14 11 -4 6 -14 8 -22 5 -8 -3 -11 -1 -8 4 4 6 19 8 33 6 15 -2 32
-5 37 -6 6 0 -1 -7 -14 -14 -15 -8 -20 -16 -12 -20 6 -4 11 -2 11 4 0 6 4 9 9
6 9 -6 26 22 22 37 -1 5 4 7 11 4 7 -2 12 -10 10 -16 -1 -7 2 -10 8 -6 7 4 7
12 0 25 -10 19 2 22 27 7 6 -4 15 -2 19 4 3 6 0 15 -7 20 -7 4 -11 9 -9 11 3
2 16 12 30 23 l25 20 -20 -24 c-14 -16 -15 -22 -5 -19 14 4 62 89 55 97 -3 2
0 12 6 22 7 14 6 19 -2 19 -8 0 -8 4 1 15 7 9 10 18 7 22 -4 3 -2 13 3 23 13
24 0 34 -16 12 -7 -9 -14 -12 -14 -6 0 6 9 19 20 29 19 17 20 31 20 227 l0
208 -38 0 c-21 0 -43 5 -50 12 -7 7 -12 8 -12 2 0 -5 4 -14 10 -20 5 -5 10
-102 11 -229 1 -121 3 -214 6 -207 11 28 21 -1 12 -34 -6 -19 -9 -43 -7 -52 3
-13 7 -11 19 11 l15 28 1 -36 c1 -41 -15 -56 -34 -30 -13 18 -13 18 -13 0 0
-10 -2 -16 -5 -13 -3 3 -1 25 4 49 6 28 6 48 0 54 -5 5 -9 104 -9 231 0 123
-3 225 -7 227 -5 3 -7 -101 -5 -231 1 -130 -1 -233 -5 -228 -4 4 -10 110 -13
236 -4 176 -2 230 8 239 7 7 10 17 6 22 -20 33 -25 -18 -27 -258 -1 -143 1
-257 4 -251 4 5 9 2 12 -7 4 -9 3 -14 -3 -10 -11 7 -34 -44 -25 -53 3 -3 12 3
20 14 13 18 14 18 8 -3 -3 -13 -11 -23 -18 -23 -17 0 -53 -70 -47 -90 3 -8 1
-12 -3 -8 -4 3 -28 -7 -53 -23 -25 -16 -53 -29 -63 -29 -9 0 -22 -7 -29 -15
-7 -8 -20 -16 -29 -16 -9 -1 -2 -5 14 -10 22 -6 17 -7 -22 -3 -29 2 -53 1 -53
-3 0 -13 -98 -9 -111 5 -7 6 -22 13 -34 13 -17 1 -17 2 -2 6 9 2 15 9 11 14
-3 5 -10 6 -16 3 -7 -4 -8 -2 -4 5 4 6 12 9 17 6 5 -4 9 -1 9 4 0 16 -10 13
-57 -13 -24 -14 -45 -20 -49 -15 -3 5 -10 6 -16 3 -7 -4 -8 -2 -4 5 10 16 -13
43 -31 37 -9 -4 -11 -1 -7 6 5 7 3 8 -7 3 -11 -7 -11 -5 1 11 22 29 24 30 17
11 -5 -13 -3 -17 5 -14 7 2 12 11 10 18 -3 11 -1 12 10 1 9 -9 10 -15 1 -20
-8 -5 -4 -16 12 -36 l23 -28 -5 25 c-3 13 0 27 5 31 5 3 9 -2 8 -11 -2 -22 19
-27 37 -8 15 14 15 17 -1 33 -9 10 -25 29 -35 42 -13 19 -15 20 -8 4 8 -15 6
-26 -4 -40 -13 -17 -14 -14 -10 28 4 40 1 51 -18 69 -16 16 -18 20 -5 16 12
-4 15 -2 11 8 -3 8 -6 140 -7 292 l-1 278 -61 3 c-33 1 -63 0 -67 -4z"/>
<path d="M4255 2630 c-12 -13 -31 -20 -57 -20 l-38 0 0 -365 0 -365 40 0 40 0
0 158 c0 87 3 161 6 165 3 3 12 3 20 0 11 -4 14 -38 14 -170 0 -107 -3 -162
-10 -158 -6 4 -11 73 -12 168 l-2 162 -6 -165 c-4 -124 -2 -168 8 -178 19 -21
14 -27 -6 -9 -20 18 -92 23 -92 7 0 -5 17 -10 38 -10 26 0 45 -7 57 -20 10
-11 23 -19 28 -17 15 5 17 37 4 37 -8 0 -8 3 -2 8 6 4 10 76 10 180 l0 173
273 0 273 1 2 -199 2 -198 44 -3 c25 -2 55 -1 67 2 l23 6 -2 398 -2 397 -37
-3 c-44 -4 -78 5 -78 20 0 7 5 6 14 -1 18 -15 108 -12 103 3 -2 6 -32 11 -68
11 l-64 0 -3 -137 c-2 -91 1 -144 8 -159 9 -16 9 -20 0 -14 -8 5 -11 1 -8 -11
2 -11 10 -19 18 -18 11 1 15 -10 16 -37 0 -29 -3 -36 -12 -28 -8 7 -14 7 -19
-1 -3 -5 -14 -9 -23 -9 -15 1 -15 2 1 6 9 2 15 9 12 14 -4 5 1 9 9 9 9 0 16 5
16 11 0 5 -4 7 -10 4 -5 -3 -7 0 -4 9 5 13 -29 15 -265 16 -180 0 -271 -3
-271 -10 0 -5 -4 -10 -8 -10 -5 0 -9 82 -9 182 0 105 -5 184 -10 185 -5 2 -18
-6 -28 -17z"/>
<path d="M5054 2638 c-4 -6 2 -443 7 -525 1 -13 5 -20 10 -17 5 3 9 -2 9 -11
0 -9 -4 -13 -10 -10 -5 3 -10 1 -10 -4 0 -6 5 -11 11 -11 6 0 9 -8 7 -18 -6
-20 15 -45 28 -34 5 4 2 -1 -5 -10 -10 -13 -10 -18 -2 -18 7 0 9 -4 6 -10 -3
-5 5 -21 18 -34 14 -14 23 -27 21 -30 -2 -3 -1 -4 3 -1 3 3 12 -4 20 -15 8
-11 22 -20 32 -20 11 0 21 -7 25 -15 7 -19 21 -19 40 1 9 8 16 14 17 12 0 -2
2 -11 4 -21 5 -25 15 -34 15 -14 0 9 5 17 11 17 6 0 9 -7 5 -15 -3 -8 -2 -15
2 -16 4 0 30 -3 57 -6 28 -4 64 -6 80 -5 17 1 47 2 68 2 21 1 36 4 33 8 -2 4
10 7 27 7 26 0 31 4 29 20 -2 12 0 16 5 9 4 -6 16 -11 26 -11 31 0 2 17 -39
23 -26 4 -35 2 -26 -4 11 -7 10 -10 -3 -16 -25 -9 -43 -6 -20 4 l20 9 -20 0
c-11 1 -27 6 -35 11 -11 8 -8 9 12 4 29 -6 78 19 59 31 -6 3 -11 2 -11 -2 0
-21 -269 -19 -288 2 -4 5 -1 5 6 1 6 -4 12 -2 12 3 0 6 -6 11 -13 11 -7 0 -18
5 -25 12 -14 14 -42 20 -42 9 0 -4 3 -11 8 -15 4 -4 7 -13 7 -19 0 -6 11 -14
25 -18 23 -6 23 -7 3 -8 -12 -1 -30 -4 -40 -8 -16 -6 -16 -5 -4 11 12 15 12
17 0 14 -8 -2 -17 -7 -21 -13 -5 -6 -8 -5 -8 4 0 7 -6 11 -15 7 -8 -3 -15 -1
-15 4 0 6 5 10 11 10 11 0 39 25 39 35 0 3 -13 -3 -29 -15 -16 -11 -32 -17
-34 -13 -8 12 16 39 33 38 24 -2 32 6 20 20 -8 10 -8 15 1 21 7 4 9 3 6 -3 -4
-6 2 -18 13 -28 26 -23 25 -7 0 25 -11 14 -20 31 -20 38 0 6 -4 12 -9 12 -6 0
-10 8 -10 18 0 9 0 139 0 287 0 184 -3 267 -10 260 -6 -6 -11 -96 -11 -233 -1
-122 -4 -222 -8 -222 -4 0 -6 109 -5 243 1 220 3 242 18 239 10 -2 14 1 10 7
-11 19 -35 12 -45 -15 -6 -14 -10 -115 -10 -225 0 -126 -4 -199 -10 -199 -6 0
-10 75 -10 205 0 130 4 205 10 205 6 0 10 9 10 20 0 17 -6 20 -36 18 -19 -1
-37 -6 -40 -10z"/>
<path d="M2315 2610 c50 -3 71 -7 49 -8 -38 -2 -42 -5 -46 -32 -5 -35 0 -247
8 -305 3 -22 5 -51 5 -64 1 -18 3 -21 10 -10 6 9 9 10 9 2 0 -6 -5 -15 -10
-18 -12 -8 -2 -204 12 -222 5 -6 7 -32 4 -57 -4 -27 -2 -48 5 -51 6 -4 8 -13
6 -20 -4 -9 11 -13 54 -14 49 -1 59 1 59 15 0 14 -8 16 -52 12 -29 -3 -47 -3
-40 -1 6 3 10 8 8 11 -2 4 16 5 40 3 27 -2 44 1 44 8 0 6 -20 11 -47 11 -45 0
-46 1 -26 15 12 8 33 16 47 17 26 2 35 21 16 33 -6 4 -8 16 -5 28 5 19 4 19
-9 -3 -9 -14 -15 -20 -16 -14 0 5 7 19 15 30 15 20 20 66 8 78 -5 4 -9 35 -10
69 -1 34 -2 80 -3 101 -1 25 -8 44 -18 52 -9 7 -14 16 -9 20 4 4 7 2 7 -4 0
-7 4 -12 9 -12 4 0 5 19 0 43 -4 23 -8 47 -9 52 0 6 -5 3 -10 -5 -8 -12 -10
-12 -10 -1 0 8 8 20 18 27 11 9 13 16 7 21 -6 5 -10 33 -9 63 1 30 -1 60 -5
65 -3 6 -6 24 -7 40 l0 30 -95 1 -94 1 90 -7z"/>
<path d="M926 2584 c-3 -9 -6 -17 -6 -19 0 -1 99 -4 220 -4 215 -2 220 -2 220
19 0 20 -5 20 -214 20 -186 0 -215 -2 -220 -16z"/>
<path d="M2114 2368 c-10 -23 -18 -49 -16 -56 2 -9 -1 -11 -9 -6 -7 4 -10 3
-5 -4 3 -5 2 -12 -2 -14 -13 -5 -62 -110 -56 -119 3 -5 0 -9 -6 -9 -6 0 -8 -5
-4 -11 9 -16 24 2 26 35 2 27 3 27 19 7 9 -11 19 -17 23 -14 3 4 6 0 7 -8 1
-8 5 -3 9 11 7 23 8 23 9 3 1 -32 -15 -37 -40 -12 l-22 22 7 -28 c11 -45 56
-73 56 -35 0 11 4 20 10 20 5 0 6 7 3 17 -4 11 -3 14 6 9 10 -6 10 -4 0 12
-10 17 -10 23 0 36 8 9 19 16 25 16 6 0 3 -5 -6 -11 -20 -11 -25 -39 -7 -39 5
0 8 4 5 9 -3 5 1 14 10 21 8 7 13 19 10 26 -3 7 1 15 8 17 7 3 16 14 18 25 5
17 2 19 -15 13 -12 -5 -25 -19 -28 -32 l-7 -24 -1 26 c-1 14 -7 31 -13 39 -11
12 -10 12 2 3 18 -14 46 -1 36 16 -4 6 -2 11 5 11 8 0 8 4 -1 15 -7 8 -17 12
-23 8 -6 -3 -7 -1 -3 5 4 7 2 12 -5 12 -7 0 -9 3 -6 7 4 3 16 -2 27 -12 23
-21 27 -4 4 19 -23 23 -29 20 -50 -26z"/>
<path d="M6820 2302 c0 -4 -12 -16 -27 -26 -16 -9 -20 -15 -11 -12 12 3 15 1
11 -10 -7 -19 4 -18 33 5 17 13 20 21 12 24 -8 3 -6 6 5 6 9 1 17 -6 17 -14 0
-8 -5 -15 -12 -15 -9 0 -9 -3 0 -12 10 -10 15 -10 22 2 7 11 10 11 10 2 0 -7
5 -10 12 -6 6 4 8 3 4 -4 -3 -6 -23 -9 -44 -6 -28 3 -33 2 -22 -6 11 -8 8 -9
-15 -5 l-30 6 27 -15 c20 -12 33 -14 53 -6 28 11 45 6 45 -12 0 -7 -5 -6 -14
1 -11 9 -16 9 -22 0 -4 -7 -3 -9 4 -5 6 3 13 2 17 -4 4 -7 12 -7 26 0 13 7 19
7 19 0 0 -5 -5 -10 -12 -10 -6 0 -8 -3 -5 -6 4 -4 13 -1 21 5 11 9 16 9 22 0
4 -8 3 -9 -4 -5 -7 4 -12 4 -12 -1 0 -10 83 -63 98 -63 11 0 35 -60 27 -68 -3
-3 -5 1 -5 9 0 11 -2 11 -10 -1 -14 -22 -12 -43 4 -37 17 7 42 -18 27 -27 -5
-3 -12 0 -14 6 -5 12 -11 -16 -8 -34 0 -5 -4 -8 -10 -8 -7 0 -9 10 -5 25 9 35
2 31 -23 -11 -24 -40 -28 -59 -7 -31 9 12 16 14 21 7 3 -5 10 -8 14 -5 5 2 6
-6 4 -18 -2 -12 1 -29 6 -37 8 -12 14 -11 34 8 16 15 23 31 21 45 -2 12 -2 16
2 10 24 -52 66 65 51 140 -7 31 -47 99 -47 80 0 -18 4 -28 11 -26 9 3 4 -30
-9 -53 -6 -12 -8 -25 -4 -29 4 -5 2 -5 -5 -1 -7 4 -10 12 -7 19 2 7 -4 22 -16
32 -11 10 -20 15 -20 11 0 -3 -22 6 -50 20 -52 27 -65 40 -29 29 14 -5 19 -3
15 3 -3 6 -2 13 3 17 6 3 8 -3 6 -15 -2 -12 3 -24 15 -30 30 -16 35 -12 14 12
-18 20 -18 21 -1 15 10 -4 26 -7 35 -8 10 0 12 -3 5 -5 -7 -3 -9 -12 -6 -20 9
-23 20 -16 25 16 5 33 -16 60 -45 60 -9 0 -17 4 -17 8 0 5 -11 14 -25 20 -29
13 -64 -2 -66 -28 0 -11 -2 -12 -6 -2 -3 7 3 22 13 33 14 16 15 20 4 17 -8 -2
-21 -11 -28 -20 -7 -10 -19 -18 -25 -18 -9 0 -9 2 0 8 18 11 20 47 3 48 -8 0
-28 6 -45 13 -50 19 -55 21 -55 13z"/>
<path d="M6575 1917 c11 -9 25 -17 32 -17 6 0 14 -4 17 -9 3 -5 -2 -8 -12 -7
-9 0 -21 7 -25 14 -4 6 -15 12 -22 12 -14 0 -17 -5 -19 -40 -2 -20 44 -39 103
-42 27 -2 47 -6 45 -9 -2 -3 20 -7 48 -8 28 -1 54 -4 59 -6 4 -3 10 -1 14 5 3
5 1 10 -6 10 -7 0 -9 3 -6 6 4 4 13 2 20 -4 18 -16 135 -7 153 11 4 4 17 7 30
7 12 0 29 11 38 25 17 25 17 26 -8 22 -28 -3 -47 -17 -25 -18 8 0 3 -5 -10
-10 -13 -5 -26 -7 -29 -4 -3 3 0 5 7 5 9 0 8 4 -3 15 -8 9 -22 12 -32 8 -12
-4 -15 -3 -10 5 4 7 3 12 -3 12 -5 0 -13 -5 -16 -10 -3 -6 -18 -7 -32 -4 -18
5 -24 3 -19 -5 4 -6 1 -11 -9 -11 -9 0 -14 4 -10 9 7 12 -152 19 -172 7 -9 -5
-19 -4 -26 4 -9 8 -7 10 8 5 16 -5 17 -5 4 4 -8 5 -26 12 -40 15 -13 2 -33 7
-44 11 l-20 8 20 -16z"/>
<path d="M396 1119 c-59 -9 -151 -46 -167 -65 -20 -24 -2 -27 28 -5 29 21 141
57 150 48 2 -3 -16 -31 -42 -63 -86 -106 -130 -233 -84 -242 12 -2 19 7 24 35
10 56 68 176 112 233 30 39 44 49 68 49 17 1 37 -3 45 -9 16 -10 43 6 34 21
-6 11 -100 10 -168 -2z"/>
<path d="M622 1073 c-11 -16 -36 -61 -56 -101 -20 -40 -43 -75 -50 -78 -12 -5
-21 -94 -9 -94 3 0 28 20 54 45 59 55 76 58 71 10 -3 -25 0 -36 11 -41 20 -7
87 42 87 64 0 13 -2 13 -17 0 -39 -33 -44 -32 -41 9 3 33 0 38 -20 41 -14 2
-33 -5 -45 -16 -12 -10 -28 -22 -35 -27 -19 -10 11 46 42 80 14 15 31 45 39
68 22 67 4 90 -31 40z"/>
<path d="M1432 1073 c-11 -16 -36 -61 -56 -101 -20 -40 -43 -75 -50 -78 -12
-5 -21 -94 -9 -94 3 0 28 20 54 45 59 55 76 58 71 10 -3 -25 0 -36 11 -41 20
-7 87 42 87 64 0 13 -2 13 -17 0 -39 -33 -44 -32 -41 9 3 33 0 38 -20 41 -14
2 -33 -5 -45 -16 -12 -10 -28 -22 -35 -27 -19 -10 11 46 42 80 14 15 31 45 39
68 22 67 4 90 -31 40z"/>
<path d="M3345 1091 c-3 -6 -17 -40 -31 -78 -16 -44 -40 -83 -67 -110 -22 -24
-38 -46 -34 -49 4 -4 13 -1 22 6 20 16 19 1 -1 -28 -8 -12 -12 -22 -9 -22 3 0
1 -9 -6 -21 -23 -45 -58 -151 -52 -165 8 -22 16 -18 70 36 61 61 77 97 58 134
-13 24 -12 27 36 61 57 41 66 66 12 32 -21 -13 -44 -27 -51 -31 -17 -10 10 57
39 97 27 38 51 106 43 129 -6 20 -19 24 -29 9z"/>
<path d="M4645 1091 c-3 -6 -17 -40 -31 -78 -16 -44 -40 -83 -67 -110 -22 -24
-38 -46 -34 -49 4 -4 13 -1 22 6 20 16 19 1 -1 -28 -8 -12 -12 -22 -9 -22 3 0
1 -9 -6 -21 -23 -45 -58 -151 -52 -165 8 -22 16 -18 70 36 61 61 77 97 58 134
-13 24 -12 27 36 61 57 41 66 66 12 32 -21 -13 -44 -27 -51 -31 -17 -10 10 57
39 97 27 38 51 106 43 129 -6 20 -19 24 -29 9z"/>
<path d="M5845 1091 c-3 -6 -17 -40 -31 -78 -16 -44 -40 -83 -67 -110 -22 -24
-38 -46 -34 -49 4 -4 13 -1 22 6 20 16 19 1 -1 -28 -8 -12 -12 -22 -9 -22 3 0
1 -9 -6 -21 -23 -45 -58 -151 -52 -165 8 -22 16 -18 70 36 61 61 77 97 58 134
-13 24 -12 27 36 61 57 41 66 66 12 32 -21 -13 -44 -27 -51 -31 -17 -10 10 57
39 97 27 38 51 106 43 129 -6 20 -19 24 -29 9z"/>
<path d="M2614 1056 c-8 -14 -30 -28 -47 -31 -85 -17 -137 -36 -137 -51 0 -10
6 -14 18 -11 94 25 113 29 119 23 3 -3 -18 -33 -47 -66 -57 -67 -61 -94 -5
-40 l35 34 -6 -29 c-6 -34 10 -85 27 -85 7 0 9 15 4 49 -11 79 37 161 94 161
21 0 34 7 42 21 11 21 10 22 -25 16 -31 -5 -36 -3 -36 14 0 26 -16 24 -36 -5z"/>
<path d="M5394 1056 c-8 -14 -30 -28 -47 -31 -85 -17 -137 -36 -137 -51 0 -10
6 -14 18 -11 94 25 113 29 119 23 3 -3 -18 -33 -47 -66 -57 -67 -61 -94 -5
-40 l35 34 -6 -29 c-6 -34 10 -85 27 -85 7 0 9 15 4 49 -11 79 37 161 94 161
21 0 34 7 42 21 11 21 10 22 -25 16 -31 -5 -36 -3 -36 14 0 26 -16 24 -36 -5z"/>
<path d="M1960 918 c-47 -33 -74 -71 -65 -97 9 -29 34 -26 82 9 41 31 42 31
45 8 4 -31 30 -34 63 -5 38 32 29 56 -9 26 l-29 -23 7 24 c20 66 20 73 -3 65
-12 -4 -21 -2 -21 4 0 18 -35 12 -70 -11z"/>
<path d="M2993 914 c-24 -14 -43 -32 -43 -40 0 -8 5 -12 10 -9 6 3 10 -4 10
-18 0 -13 9 -32 19 -41 18 -16 21 -16 58 3 52 26 68 62 48 101 -19 37 -46 38
-102 4z"/>
<path d="M3709 921 c-8 -9 -26 -25 -39 -34 -32 -22 -18 -34 15 -13 14 9 25 15
25 13 0 -13 -25 -74 -35 -87 -7 -8 -12 -22 -12 -31 0 -19 -24 -81 -29 -76 -3
2 3 20 11 40 19 46 13 47 -14 3 -22 -35 -26 -62 -13 -84 17 -25 42 1 73 77 28
69 34 77 54 73 27 -5 136 42 161 69 21 24 10 38 -13 17 -33 -27 -38 -27 -38 5
0 40 -26 47 -66 18 -35 -26 -37 -26 -41 1 -4 27 -19 31 -39 9z"/>
<path d="M6010 918 c-47 -33 -74 -71 -65 -97 9 -29 34 -26 82 9 41 31 42 31
45 8 4 -31 30 -34 63 -5 38 32 29 56 -9 26 l-29 -23 7 24 c20 66 20 73 -3 65
-12 -4 -21 -2 -21 4 0 18 -35 12 -70 -11z"/>
<path d="M6653 919 c-18 -12 -33 -16 -33 -10 0 6 -7 11 -15 11 -23 0 -65 -30
-65 -46 0 -19 9 -18 34 4 20 17 20 17 3 -8 -27 -39 -30 -51 -20 -61 7 -7 27 7
61 43 l52 53 0 -42 c0 -23 4 -44 10 -48 5 -3 25 11 44 32 l35 38 1 -31 c0 -44
24 -50 66 -18 38 29 37 53 -2 28 -24 -16 -24 -16 -24 15 0 43 -24 50 -59 17
-27 -26 -48 -35 -36 -15 8 12 -2 59 -13 59 -4 0 -22 -10 -39 -21z"/>
<path d="M7220 901 c-19 -16 -32 -33 -27 -37 4 -4 13 -2 19 4 22 22 27 12 10
-18 -29 -51 -4 -55 57 -10 29 22 57 40 61 40 5 0 10 -14 12 -31 5 -49 28 -57
72 -24 20 15 36 34 36 42 0 11 -9 8 -35 -11 -19 -15 -35 -23 -36 -19 0 4 -1
24 -2 43 -2 43 -27 51 -69 20 -16 -12 -32 -19 -35 -16 -4 3 -3 6 1 6 4 0 2 9
-4 20 -14 26 -19 25 -60 -9z"/>
<path d="M7645 919 c-17 -5 -50 -25 -74 -45 l-43 -37 21 -20 c22 -23 33 -20
98 23 l33 22 -11 -30 c-7 -20 -19 -31 -37 -35 -37 -8 -74 -38 -97 -80 -19 -36
-15 -67 8 -67 15 0 79 58 103 94 9 14 25 26 36 26 16 0 19 5 15 22 -4 12 1 44
11 71 15 42 15 49 2 57 -18 11 -25 11 -65 -1z"/>
</g>
</svg>
